<svg xmlns="http://www.w3.org/2000/svg" width="951.529" height="343.132" viewBox="0 0 951.529 343.132">
  <g id="רקע_עם_איור" data-name="רקע עם איור" transform="translate(-99.272 -736.868)">
    <g id="Group_3758" data-name="Group 3758">
      <g id="Artwork_11" data-name="Artwork 11" transform="translate(158.875 151.713)">
        <g id="Group_750" data-name="Group 750" transform="translate(-101 277.063)">
          <g id="Group_700" data-name="Group 700" transform="translate(280.285 310.545)">
            <g id="Group_699" data-name="Group 699">
              <g id="Group_693" data-name="Group 693" transform="translate(12.789 258.502)">
                <path id="Path_1630" data-name="Path 1630" d="M1772.366,1490.8l20.084-74.2H1776.8l-11.283,73.807a2.545,2.545,0,0,0,2.254,3.087h1.421A3.419,3.419,0,0,0,1772.366,1490.8Z" transform="translate(-1765.478 -1416.603)" fill="#aec3ff"/>
              </g>
              <g id="Group_694" data-name="Group 694" transform="translate(224.228 258.502)">
                <path id="Path_1631" data-name="Path 1631" d="M1259.2,1490.8l-20.084-74.2h15.654l11.283,73.807a2.545,2.545,0,0,1-2.254,3.087h-1.422A3.419,3.419,0,0,1,1259.2,1490.8Z" transform="translate(-1239.115 -1416.603)" fill="#aec3ff"/>
              </g>
              <g id="Group_695" data-name="Group 695" transform="translate(115.163 258.502)">
                <path id="Path_1632" data-name="Path 1632" d="M1517.512,1490.8l20.084-74.2h-15.655l-11.283,73.807a2.545,2.545,0,0,0,2.255,3.087h1.422A3.419,3.419,0,0,0,1517.512,1490.8Z" transform="translate(-1510.623 -1416.603)" fill="#aec3ff"/>
              </g>
              <path id="Path_1633" data-name="Path 1633" d="M1521.287,971.3s41.563-9.076,121.758,0l9.2,93.488-110.1-5.446Z" transform="translate(-1514.396 -889.262)" fill="#db6a1d"/>
              <path id="Path_1634" data-name="Path 1634" d="M1344.344,1115.836s7.888-83.674-28.117-83.674-43.19-.4-39.954-33.6c3.354-34.4-48.085-23.629-48.085-23.629L1241,1115.836Z" transform="translate(-1089.488 -892.89)" fill="#f99746"/>
              <path id="Path_1635" data-name="Path 1635" d="M1395.63,1117.95s7.887-83.674-28.116-83.674-46.784-5.676-51.791-38.655c-3.323-21.886-36.247-18.578-36.247-18.578l12.812,140.907Z" transform="translate(-1161.373 -895.005)" fill="#ed7d2b"/>
              <path id="Rectangle_145" data-name="Rectangle 145" d="M0,0H127.716a0,0,0,0,1,0,0V28.333A12.313,12.313,0,0,1,115.4,40.646H11.981A11.981,11.981,0,0,1,0,28.665V0A0,0,0,0,1,0,0Z" transform="translate(12.789 222.945)" fill="#ed7d2b"/>
              <path id="Rectangle_146" data-name="Rectangle 146" d="M0,0H135.943a0,0,0,0,1,0,0V27.942a12.7,12.7,0,0,1-12.7,12.7H12.361A12.361,12.361,0,0,1,0,28.286V0A0,0,0,0,1,0,0Z" transform="translate(118.91 222.945)" fill="#f99746"/>
              <path id="Path_1636" data-name="Path 1636" d="M1604.107,776.13s-4.885-6.963-16.438.151c-13.241,8.155-25.371,25.376-22.1,36.394,4.02,13.54-16.705,33.077-1.362,42.265,19.245,11.524,40.129-14.276,42.515-22.085s-1.587-12.753-11.48-17.064,5.5-28.423,5.5-28.423Z" transform="translate(-1484.478 -773.08)" fill="#163560"/>
              <path id="Path_1637" data-name="Path 1637" d="M1430.61,1481.976s-1.981,17.522-4.931,25.212c-1.815,4.732-.084,9.4,1.227,11.926,2.384,4.585,2.987,7.108-.832,7.211-8.674.235-10.817-1.841-13.4-9.865-1.177-3.662.74-12.929-4.5-19.512-3.957-4.967-.476-10.168,3.773-12.238s10.168-13.405,10.168-13.405Z" transform="translate(-1246.624 -1190.829)" fill="#133054"/>
              <path id="Path_1638" data-name="Path 1638" d="M1426.066,1276.176s1.079-8.175-4.1-11.912c-13.018-9.4-34.667-21.193-62.835-22.8-47.748-2.723-78.154,34.711-78.154,34.711Z" transform="translate(-1191.776 -1053.231)" fill="#db6a1d"/>
              <path id="Path_1639" data-name="Path 1639" d="M1305.65,1171.031s105.886-6.517,104.734,23c-.442,11.338-13.118,42.126-15.222,47.961-13.964,38.714-27.916,65.1-27.916,65.1s-13.131-3.885-14.326-13.567c0,0,9.109-53.236,15.4-64.8,4.51-8.295-4.776-15.516-4.776-15.516s-44.674,3.091-58.52-.9S1305.65,1171.031,1305.65,1171.031Z" transform="translate(-1183.26 -1010.809)" fill="#163560"/>
              <path id="Path_1640" data-name="Path 1640" d="M1296.331,1496.755s2.979,13.951,6.538,17.56,7.286,12.631,11.307,15.162,10.84,6.122,8.759,9.326c0,0-20.515,1.109-22.444-2.295-1.785-3.151-7.759-11.592-13.969-12.922-6.037-1.293-6.805-7.67-4.336-11.7s1.244-19.56,1.244-19.56Z" transform="translate(-1088.894 -1203.407)" fill="#244884"/>
              <path id="Path_1641" data-name="Path 1641" d="M1344.847,1163.194s140.172,17.656,138.743,42.284c-3.934,67.775.375,104.369.375,104.369s-10.361,5.067-18.49.126c0,0-5.958-27.037-11.522-43.116-11.306-32.677-5.971-43.01-7.7-43.494s-73.5,6.067-99.747-15.644C1335.573,1198.679,1344.847,1163.194,1344.847,1163.194Z" transform="translate(-1273.762 -1006.486)" fill="#2a4e96"/>
              <path id="Path_1642" data-name="Path 1642" d="M1302.37,964.14s19.084,45.164,26.54,47.383,43.113,9.659,44.258,10.9-3.108,7.073-3.659,6.034-43.731-2.17-48.305-3.04c-8.774-1.669-30.915-29.524-30.867-34.167S1296.748,961.517,1302.37,964.14Z" transform="translate(-1142.737 -887.276)" fill="#ffb27d"/>
              <path id="Path_1643" data-name="Path 1643" d="M1479.946,1039.985c7.162,16.278,51.158,2.242,62.38-6.027,15.268-11.249-5.779-12.526-1.031-24.989,2.6-6.827,15.476-18.581,17.709-28.266,1.141-4.944-2.26-36.093-5.289-42.138s-17.352-11.322-28.148-10.684c-17.516,1.035-22.844,3.386-25.128,9.062-3.4,8.454-5.6,19.376-6.8,29.267a129.6,129.6,0,0,0-1.059,19.981c.324,7.132-5.2,20.121-9.249,31.918a.044.044,0,0,1-.007.01C1480.218,1027.174,1477.985,1035.528,1479.946,1039.985Z" transform="translate(-1404.474 -865.666)" fill="#f9ddbf"/>
              <path id="Path_1644" data-name="Path 1644" d="M1653.168,1111.966s8.1-83.674-28.881-83.674-58.743,3.375-51.056-38.434c4.567-24.836-12.982-24.549-48-21.672-4.318.354-11.469,6.066-10.452,10.277l32.229,133.5Z" transform="translate(-1513.416 -889.021)" fill="#f99746"/>
              <path id="Path_1645" data-name="Path 1645" d="M1447.4,980.685a19.644,19.644,0,0,0,7.758-1.02,28.6,28.6,0,0,0,8.8-5.014,41.141,41.141,0,0,0,7.649-8.187s-10.478-22.353-14.069-26.928-17.852-8.623-17.852-8.623S1433.327,979.625,1447.4,980.685Z" transform="translate(-1300.401 -867.511)" fill="#f9ddbf"/>
              <path id="Path_1646" data-name="Path 1646" d="M1524.923,906.283c8.75.713,9.419-2.333,10.022-5.607.249-1.358.508-3.708.807-6.528.123-1.18.252-2.446.393-3.751.27-2.522.637-5.106.942-7.12.341-2.2.608-3.715.608-3.715l-17.432-5.376-1.04-.319c-1.384,13.831-5.955,19.742-6.564,22.064C1511.379,900.817,1519.183,905.814,1524.923,906.283Z" transform="translate(-1396.323 -833.381)" fill="#ffb27d"/>
              <path id="Path_1647" data-name="Path 1647" d="M1514.036,890.332c1.626,5.232,6.058,12.3,15.889,13.667.123-1.18.252-2.445.393-3.751.271-2.521.636-5.106.942-7.12Z" transform="translate(-1390.495 -843.232)" fill="#f4a269"/>
              <path id="Path_1648" data-name="Path 1648" d="M1509.2,853.582s-23.621,1.837-24.539-12.891-4.585-24.41,10.458-26.206,18.327,3.641,19.829,8.483S1515.32,852.724,1509.2,853.582Z" transform="translate(-1362.55 -797.642)" fill="#ffb27d"/>
              <path id="Path_1649" data-name="Path 1649" d="M1492.626,796.1a81.366,81.366,0,0,1,16.979,4.291c5.313,2.115,10.053-8.744-.442-17-10.637-8.365-26.143-8.874-32.163-7.239-9.94,2.7-16.24,26.52-4.241,37.7.646.6,4.85,4.388,4.85,4.388s2.763-3.542,1.954-4.8c-2.613-4.066-.627-9.239,3.439-6.948C1486.436,808.427,1487.564,794.941,1492.626,796.1Z" transform="translate(-1355.436 -774.474)" fill="#163560"/>
              <g id="Group_696" data-name="Group 696" transform="translate(223.128 135.133)">
                <path id="Path_1650" data-name="Path 1650" d="M1270.413,1109.485s7.6,6.988,8.523,9.573,2.566,11.825,2.566,11.825-2.214-.017-3.78-4.145-8.756-4.932-10.811-7.363-3.871-8.891-3.871-8.891Z" transform="translate(-1263.04 -1109.485)" fill="#ffb27d"/>
                <path id="Path_1651" data-name="Path 1651" d="M1290.664,1116.971s.362,6.87,1.785,9.092,3.29,5.841,4.4,5.13.2-8.284.2-8.284Z" transform="translate(-1290.035 -1113.964)" fill="#ffb27d"/>
                <path id="Path_1652" data-name="Path 1652" d="M1256.817,1134.732c.165.359,6.375,9.47,6.375,9.47s-2.9.8-3.462-.547S1256.817,1134.732,1256.817,1134.732Z" transform="translate(-1242.231 -1124.59)" fill="#ffb27d"/>
              </g>
              <path id="Path_1653" data-name="Path 1653" d="M1458.348,1032.956a28.609,28.609,0,0,0,8.8-5.014c-4.139-2.2-8.514-8.381-9.5-7.936C1456.548,1020.511,1458.348,1032.956,1458.348,1032.956Z" transform="translate(-1303.595 -920.802)" fill="#f2ccaa"/>
              <path id="Path_1654" data-name="Path 1654" d="M1623.71,1063.968c.275-.384,9.143-12.753,15.361-22.88,6.318-10.287-1.376-36.611-1.376-36.611l-3.676,7.592a129.529,129.529,0,0,0-1.059,19.981C1633.283,1039.182,1627.755,1052.171,1623.71,1063.968Z" transform="translate(-1544.853 -911.525)" fill="#f2ccaa"/>
              <path id="Path_1655" data-name="Path 1655" d="M1685.547,1112.623s8-86.372-28.882-83.674c-46.493,3.4-55.786,5.214-46.8-35.024,6.375-28.533-12.789-27.57-36.908-24.442-3.327.432-6.963,2.943-6.211,7.819l12.639,135.321Z" transform="translate(-1566.651 -889.677)" fill="#ed7d2b"/>
              <g id="Group_698" data-name="Group 698" transform="translate(103.932 135.653)">
                <path id="Path_1656" data-name="Path 1656" d="M1569.347,1110.778s7.3,7.3,8.113,9.922,2.068,11.922,2.068,11.922-2.212-.11-3.6-4.3-8.541-5.294-10.492-7.81-3.5-9.046-3.5-9.046Z" transform="translate(-1561.938 -1110.778)" fill="#ffb27d"/>
                <path id="Path_1657" data-name="Path 1657" d="M1555.535,1136.756c.15.365,5.973,9.73,5.973,9.73s-2.929.675-3.436-.692S1555.535,1136.756,1555.535,1136.756Z" transform="translate(-1541.345 -1126.321)" fill="#ffb27d"/>
                <g id="Group_697" data-name="Group 697" transform="translate(5.342 10.234)">
                  <path id="Path_1658" data-name="Path 1658" d="M1582.072,1139.374l-.661-.206,0-.01Z" transform="translate(-1577.645 -1137.992)" fill="#ffb27d"/>
                  <path id="Path_1659" data-name="Path 1659" d="M1582.849,1137.432l1.6,6.3a4.184,4.184,0,0,1-2.738-1.555,37.709,37.709,0,0,1-2.623-5.919Z" transform="translate(-1579.083 -1136.256)" fill="#ffb27d"/>
                </g>
              </g>
              <path id="Path_1660" data-name="Path 1660" d="M1631.036,967.36s-29.068,23.576-42.463,47.922c-.758,1.378-2.036,6.948-.643,7.677,1.939,1.015,4.221,3.51,10.645,4.127,12.566,1.208,49.179,3.384,49.179,3.384l4.052-5.692s-44.184-9.588-43.2-10.3,33.573-19.361,34.982-27.689S1648.305,966.071,1631.036,967.36Z" transform="translate(-1540.476 -889.262)" fill="#ffb27d"/>
              <path id="Path_1661" data-name="Path 1661" d="M1603.387,930.644s-14.933,2.68-20.254,6.764-13.338,15.129-13.338,15.129-2.789,23.348,20.358,23.8l21.7-32.274Z" transform="translate(-1493.443 -867.351)" fill="#f9ddbf"/>
            </g>
          </g>
          <g id="Group_707" data-name="Group 707" transform="translate(89.076 518.938)">
            <g id="Group_702" data-name="Group 702" transform="translate(21.485)">
              <g id="Group_701" data-name="Group 701">
                <path id="Rectangle_147" data-name="Rectangle 147" d="M7.241,0H47.458a0,0,0,0,1,0,0V14.646a0,0,0,0,1,0,0H7.405A7.405,7.405,0,0,1,0,7.241v0A7.241,7.241,0,0,1,7.241,0Z" transform="translate(35.396)" fill="#fcecdb"/>
                <path id="Path_1662" data-name="Path 1662" d="M2075.235,1297.886v2.2a6.416,6.416,0,0,0,6.417,6.417h77.708a.931.931,0,0,0,.931-.93v-.33a.931.931,0,0,0-.931-.931h-47.37a5.97,5.97,0,0,1-1.359-3.8v-2.8a5.828,5.828,0,0,1,1.29-3.665h47.438a.931.931,0,0,0,.931-.931v-.329a.931.931,0,0,0-.931-.93h-78.1a6.024,6.024,0,0,0-6.027,6.026Z" transform="translate(-2075.235 -1291.86)" fill="#699dee"/>
                <path id="Path_1663" data-name="Path 1663" d="M2075.235,1296.225h35.355a5.849,5.849,0,0,1,1.1-2.175h47.438a.931.931,0,0,0,.931-.931v-.329a.931.931,0,0,0-.931-.93h-78.1A6.027,6.027,0,0,0,2075.235,1296.225Z" transform="translate(-2075.003 -1291.86)" fill="#548ee2"/>
              </g>
              <path id="Path_1664" data-name="Path 1664" d="M2086.47,1310.09l-5.754.246,5.754.148Z" transform="translate(-2003.616 -1302.767)" fill="#f4d2b8"/>
              <path id="Path_1665" data-name="Path 1665" d="M2094.4,1315.811l-13.689.246,13.689.148Z" transform="translate(-2011.551 -1306.19)" fill="#f4d2b8"/>
            </g>
            <g id="Group_706" data-name="Group 706" transform="translate(0 14.615)">
              <g id="Group_704" data-name="Group 704">
                <g id="Group_703" data-name="Group 703">
                  <path id="Path_1666" data-name="Path 1666" d="M2134.855,1339.636H2090.71v-11.393h44.5a5.518,5.518,0,0,1,5.517,5.517h0A5.875,5.875,0,0,1,2134.855,1339.636Z" transform="translate(-2040.406 -1328.243)" fill="#ed7d2b"/>
                  <path id="Rectangle_148" data-name="Rectangle 148" d="M0,0H50.346a5.632,5.632,0,0,1,5.632,5.632v0a5.76,5.76,0,0,1-5.76,5.76H0a0,0,0,0,1,0,0V0A0,0,0,0,1,0,0Z" transform="translate(2.597 0)" fill="#fcecdb"/>
                  <path id="Path_1667" data-name="Path 1667" d="M2246.1,1354.067h-61.078a.852.852,0,0,1-.852-.852h0a.852.852,0,0,1,.852-.852H2246.1a.852.852,0,0,1,.852.852h0A.852.852,0,0,1,2246.1,1354.067Z" transform="translate(-2184.171 -1342.674)" fill="#ed7d2b"/>
                  <path id="Path_1668" data-name="Path 1668" d="M2246.1,1329.948h-61.078a.852.852,0,0,1-.852-.852h0a.852.852,0,0,1,.852-.853H2246.1a.852.852,0,0,1,.852.853h0A.852.852,0,0,1,2246.1,1329.948Z" transform="translate(-2184.171 -1328.243)" fill="#ed7d2b"/>
                </g>
                <path id="Path_1669" data-name="Path 1669" d="M2317.1,1342.424l6.787.191-6.787.115Z" transform="translate(-2314.504 -1336.727)" fill="#f4d2b8"/>
                <path id="Path_1670" data-name="Path 1670" d="M2293.8,1335.9l16.146.192-16.146.115Z" transform="translate(-2291.205 -1332.822)" fill="#f4d2b8"/>
              </g>
              <g id="Group_705" data-name="Group 705" transform="translate(13.504 3.228)">
                <path id="Path_1671" data-name="Path 1671" d="M2299.289,1336.28a2.651,2.651,0,0,0-.921,1.294,1.878,1.878,0,0,0-.072.45c-.038,1.069,0,3.488,0,3.488l-2.043-1.21-2.038,1.21v-3.279a2.6,2.6,0,0,1,.5-1.618.772.772,0,0,1,.564-.335Z" transform="translate(-2294.216 -1336.28)" fill="#f99746"/>
                <path id="Path_1672" data-name="Path 1672" d="M2299.23,1336.28a2.651,2.651,0,0,0-.921,1.294l-4.094.048s.16-1.152,1.005-1.342Z" transform="translate(-2294.158 -1336.28)" fill="#ed7d2b"/>
              </g>
            </g>
          </g>
          <g id="Group_721" data-name="Group 721" transform="translate(587.802 308.092)">
            <path id="Path_1674" data-name="Path 1674" d="M535.487,971.485s-41.563-9.076-121.758,0l-9.2,93.489,110.1-5.446Z" transform="translate(-256.551 -886.92)" fill="#88a6ea"/>
            <g id="Group_709" data-name="Group 709" transform="translate(34.628 261.029)">
              <path id="Path_1675" data-name="Path 1675" d="M952.457,1490.989l20.084-74.2H956.887L945.6,1490.594a2.544,2.544,0,0,0,2.254,3.086h1.422A3.417,3.417,0,0,0,952.457,1490.989Z" transform="translate(-945.569 -1416.787)" fill="#88a6ea"/>
            </g>
            <g id="Group_710" data-name="Group 710" transform="translate(143.692 261.029)">
              <path id="Path_1676" data-name="Path 1676" d="M694.146,1490.989l-20.084-74.2h15.654L701,1490.594a2.544,2.544,0,0,1-2.254,3.086h-1.422A3.418,3.418,0,0,1,694.146,1490.989Z" transform="translate(-674.061 -1416.787)" fill="#88a6ea"/>
            </g>
            <path id="Path_1677" data-name="Path 1677" d="M701.093,1116.02s-8.766-83.674,31.245-83.674,48-.4,44.4-33.6c-3.727-34.4,53.436-23.629,53.436-23.629L815.935,1116.02Z" transform="translate(-670.041 -890.548)" fill="#aec3ff"/>
            <path id="Path_1678" data-name="Path 1678" d="M663.589,1122.349s-8.766-83.674,31.245-83.674,51.99-5.675,57.554-38.655c3.693-21.886,32.453-14.849,32.453-14.849l-6.409,137.178Z" transform="translate(-609.643 -896.877)" fill="#a2bdf9"/>
            <path id="Path_1679" data-name="Path 1679" d="M609.529,1276.361s-1.079-8.175,4.1-11.912c13.018-9.4,34.667-21.192,62.835-22.8,47.748-2.723,78.154,34.711,78.154,34.711Z" transform="translate(-557.991 -1050.888)" fill="#88a6ea"/>
            <path id="Path_1680" data-name="Path 1680" d="M949,1430.926s12.4-.373,12.91,7.284l2.369-8.754H949.224Z" transform="translate(-904.056 -1163.338)" fill="#8fadef"/>
            <path id="Path_1681" data-name="Path 1681" d="M1004.464,1581.176h33.756s.81-5.145-.954-9.048c-1.689-3.745-2.767-4.772-.933-9.1-2.145,2.209-8.41,3.8-13.291,3.148-.6.97-3.86,6.157-5.857,7.593C1014.979,1575.352,1005.143,1574.787,1004.464,1581.176Z" transform="translate(-1000.463 -1243.253)" fill="#233862"/>
            <path id="Path_1682" data-name="Path 1682" d="M856.494,1578.265H890.25s.809-5.145-.954-9.048c-1.69-3.745-4.981-6.25-5.949-10.57-2.145,2.209-3.395,5.273-8.275,4.616-.6.97-3.86,6.158-5.857,7.593C867.01,1572.441,857.173,1571.876,856.494,1578.265Z" transform="translate(-793.054 -1240.633)" fill="#233862"/>
            <path id="Rectangle_149" data-name="Rectangle 149" d="M0,0H127.716a0,0,0,0,1,0,0V28.665a11.981,11.981,0,0,1-11.981,11.981H12.313A12.313,12.313,0,0,1,0,28.333V0A0,0,0,0,1,0,0Z" transform="translate(145.323 225.472)" fill="#95b6ef"/>
            <path id="Rectangle_150" data-name="Rectangle 150" d="M0,0H135.943a0,0,0,0,1,0,0V28.285a12.361,12.361,0,0,1-12.361,12.361H12.7A12.7,12.7,0,0,1,0,27.942V0A0,0,0,0,1,0,0Z" transform="translate(30.975 225.472)" fill="#aec3ff"/>
            <path id="Path_1683" data-name="Path 1683" d="M787.875,1199.04s7.574,23.608-9.327,34.806c-22.646,15-85.436,2.214-92.6,9.879-1.815,1.941,3.674,2.923,6.769,30.665,4.453,39.9,8.06,62.218,8.06,62.218a10.3,10.3,0,0,1-5.529,6.917c-3.118,1.544-7.074.59-7.074.59s-46.118-101.258-41.524-115.3c7.955-24.329,52-21.944,103.056-36.32C780.879,1183.713,787.875,1199.04,787.875,1199.04Z" transform="translate(-607.761 -1019.938)" fill="#ed7d2b"/>
            <path id="Path_1684" data-name="Path 1684" d="M777.991,1205.365c-22.42-2.074-83.6-3.129-96.829,5.962-16.283,11.188-38.415,139.125-38.415,139.125s1.505,1.971,5.592,3.049a71.636,71.636,0,0,0,9.751,1.1s37.36-61.918,39.547-76.335,1.061-27.237,7.215-27.669,90.7,9.313,97.921-13.827c5.638-18.076-1.12-35.563-1.12-35.563S798.674,1207.277,777.991,1205.365Z" transform="translate(-621.776 -1026.775)" fill="#f99746"/>
            <path id="Path_1685" data-name="Path 1685" d="M459.92,1432.086s-10.608-.352-12.586,7.966l-2.9-10.641h15.1Z" transform="translate(-197.015 -1163.311)" fill="#8fadef"/>
            <path id="Path_1686" data-name="Path 1686" d="M663.375,773.324c.357-.841,4.536-9.78,18.72-4.9,0,0-7.2-1.814-9.547.757,0,0,6.119-1.945,9.477.719s3.039,10.211,2.219,12.419-5.655,8.489-8.308,8.164a7.919,7.919,0,0,1-2.936-1.12,35.281,35.281,0,0,1,.6,4.076c1.2,13.606-8.854,22.609-13.109,19.56-2.729-1.955-5.568,2.892-5.568,2.892l-20.338-35.136S653.977,762.5,663.375,773.324Z" transform="translate(-498.264 -766.974)" fill="#2c3a64"/>
            <path id="Path_1687" data-name="Path 1687" d="M703.182,924.454c19.262,8.609,33.743-21.778,32.485-22.089-1.926-2.178-3.912-9.94-2.5-21.113l-1,.069-16.751,1.24s-.261,5.2-.839,10.043c-.383,3.187-.907,6.224-1.586,7.55-.2.391-3.83.916-3.839.925C708.871,901.388,698.043,922.159,703.182,924.454Z" transform="translate(-576.222 -835.347)" fill="#ffb27d"/>
            <g id="Group_711" data-name="Group 711" transform="translate(19.387 47.281)">
              <path id="Path_1688" data-name="Path 1688" d="M780.1,884.676l-5.022,4.074s1.221,1.806,3.174,4.676c.593.857.962,1.334.962,1.334,1.587,2.284,3.57,4.976,5.72,7.919l.021.048c3.791,4.987,8.143,10.526,12.246,15.005.373.4.742.791,1.107,1.171a46.754,46.754,0,0,0,6.958,6.144,6.017,6.017,0,0,0,.72.43c6.088,3.549,19.968,4.846,34.048,4.406,1.943-.057,3.871-.158,5.75-.242a133.2,133.2,0,0,0,19.194-2.371,52.564,52.564,0,0,0,8.6-2.347,21.325,21.325,0,0,0,2.294-.957c12.9-5.778,10.214-15.515,8.212-16.072a44.447,44.447,0,0,0-10.533-1.064c-6.871-.011-15.5.591-24.006,1.35-4.67.4-9.32.849-13.655,1.16-2.608.241-5.083.423-7.36.574a67.442,67.442,0,0,1-10.349.081c-1.566-.166-4.207-1.451-7.369-3.31-.84-.49-1.72-1.028-2.631-1.594-5.051-3.165-10.994-7.408-16.115-11.246-2.528-1.87-4.863-3.666-6.8-5.159C782.142,886.282,780.1,884.676,780.1,884.676Z" transform="translate(-775.079 -884.676)" fill="#ffb27d"/>
            </g>
            <path id="Path_1689" data-name="Path 1689" d="M640.817,962.126c-4.531,17.158-3.919,78.791-3.919,78.791,22.9,35.348,87.137,23.173,87.137,23.173,1.4-13.4-3.976-43.2-7.244-69.723-.8-6.5-1.475-12.8-1.894-18.61a116.88,116.88,0,0,0-1.726-13.572c-5.434-28.342-19.411-31.455-19.411-31.455-6.535,12.691-27.157,16.108-27.157,16.108-.255-7.143,2.056-16.241,2.056-16.241-3.773,0-6.649-.021-12.251,0a72.914,72.914,0,0,0-26.825,5.051S628.62,949.251,640.817,962.126Z" transform="translate(-535.727 -864.864)" fill="#2a4e96"/>
            <path id="Path_1690" data-name="Path 1690" d="M711.542,882.672s-.257,5.193-.839,10.044c9.185.861,15.043-6.9,17.591-11.283Z" transform="translate(-572.349 -835.455)" fill="#ed985f"/>
            <path id="Path_1691" data-name="Path 1691" d="M703.6,841.644s21.612,3,23.276-10.483,5.574-22.183-8.155-24.672-17.049,2.327-18.7,6.694S698.023,840.515,703.6,841.644Z" transform="translate(-568.027 -790.209)" fill="#ffb27d"/>
            <path id="Path_1692" data-name="Path 1692" d="M687.3,802.073c3.843-3.648,6.264-2.449,7.532-1.055,12.632-5.061,19.083,5.493,19.083,5.493a25.959,25.959,0,0,0,6.567,16.254s-4.245,1.956-13.058-1.5a15.58,15.58,0,0,1-6.749-5.987,50.9,50.9,0,0,0,7.4,11.683c-10.255-6.353-12.772-22-13.011-23.655-1.468,1.026-4.388,3.286-5.492,5.716-1.5,3.3-2.849,10.315-4.881,9.823C684.69,818.847,681.538,807.544,687.3,802.073Z" transform="translate(-553.745 -786.521)" fill="#2c3a64"/>
            <path id="Path_1693" data-name="Path 1693" d="M1060.453,862.988a20,20,0,0,1-1.934-3.831c-.605-1.809-.6-3.451-2.177-5.3s-2.782-5.907-3.254-5.378-.171,4.667-.384,5.048-5.942.082-7.825-1.057-6.545-4.159-6.72-3.109,3.684,8.235,5.143,9.727,6.749,2.6,8.6,3.868a15.638,15.638,0,0,1,3.532,4.111Z" transform="translate(-1036.044 -815.708)" fill="#ffb27d"/>
            <path id="Path_1694" data-name="Path 1694" d="M1074.606,854.138s-4.145-5.73-6.607-5.814l2.8,4.779Z" transform="translate(-1062.186 -815.646)" fill="#ffb27d"/>
            <path id="Path_1695" data-name="Path 1695" d="M1089.129,859.582l-6.572-7.557a5.189,5.189,0,0,1,3.114.846C1087.153,853.874,1089.129,859.582,1089.129,859.582Z" transform="translate(-1082.557 -817.854)" fill="#ffb27d"/>
            <path id="Path_1696" data-name="Path 1696" d="M640.59,1092.749c.37-.207,66.541,2.695,70.477-32.965-.8-6.5-4.52-31.244-4.939-37.057a116.867,116.867,0,0,0-1.726-13.572c-3.954-.612-9.311,3.467-10.824,9.957C683.97,1060.314,640.7,1092.207,640.59,1092.749Z" transform="translate(-526.957 -911.835)" fill="#2c3a64"/>
            <g id="Group_712" data-name="Group 712" transform="translate(103.928 80.486)">
              <path id="Path_1697" data-name="Path 1697" d="M666.551,1063.671l2.432,6.274s2.179-.633,5.645-1.652c1.038-.314,1.627-.527,1.627-.527,2.769-.843,6.068-1.948,9.67-3.138l.053-.005c6.15-2.163,13.024-4.707,18.77-7.341.515-.242,1.021-.483,1.513-.722a48.667,48.667,0,0,0,8.306-4.931,6.276,6.276,0,0,0,.656-.576c5.458-4.9,11.171-18.232,15.228-32.317.564-1.943,1.08-3.884,1.6-5.773a138.623,138.623,0,0,0,3.777-19.768,54.614,54.614,0,0,0,.42-9.272,22.036,22.036,0,0,0-.216-2.577c-1.606-14.621-12.108-15.068-13.3-13.263a46.21,46.21,0,0,0-4.415,10.093c-2.2,6.8-4.361,15.542-6.324,24.208-1.093,4.754-2.132,9.5-3.208,13.894-.594,2.661-1.2,5.17-1.779,7.474a70.184,70.184,0,0,1-3.222,10.276c-.664,1.5-2.779,3.7-5.63,6.242-.753.676-1.567,1.376-2.419,2.1-4.747,3.993-10.845,8.526-16.282,12.373-2.659,1.907-5.183,3.646-7.278,5.086C668.793,1062.163,666.551,1063.671,666.551,1063.671Z" transform="translate(-666.551 -967.338)" fill="#ffb27d"/>
            </g>
            <g id="Group_713" data-name="Group 713" transform="translate(80.528 172.579)">
              <path id="Path_1698" data-name="Path 1698" d="M850.076,1203.966s-10.953-3.1-13.562-2.375-11.548,6.643-10.291,8.25,9.131-.962,12.755-.475,6.426,2.274,9.035,1.888a45.86,45.86,0,0,0,7.151-2.14Z" transform="translate(-826.103 -1199.52)" fill="#ffb27d"/>
              <path id="Path_1699" data-name="Path 1699" d="M846.653,1201.045s-5.358-2.753-6.883-4.32a.427.427,0,0,0-.666.077c-.409.644-.791,1.888,1.089,3.125C842.9,1201.706,846.653,1201.045,846.653,1201.045Z" transform="translate(-822.68 -1196.598)" fill="#ffb27d"/>
            </g>
            <path id="Path_1700" data-name="Path 1700" d="M670.559,940.768s9.041,7.482,12.2,16.262c5,13.873,2.357,35.395-3.162,63.578,0,0-15.949-.606-27.521-20.339C652.079,1000.27,659.34,936.693,670.559,940.768Z" transform="translate(-505.919 -870.843)" fill="#2a4e96"/>
            <path id="Path_1701" data-name="Path 1701" d="M724.568,919.846s3.724,2.317,3.732,5.753c0,0-4.4,12.021-30.086,14.812C698.214,940.411,721.856,928.784,724.568,919.846Z" transform="translate(-567.338 -858.438)" fill="#2c3a64"/>
            <path id="Path_1702" data-name="Path 1702" d="M762.434,922.706s-6.48,11.906-6.3,17.705c0,0-.441-13.18.478-16.241S763,919.846,763,919.846Z" transform="translate(-625.262 -858.438)" fill="#2c3a64"/>
            <path id="Path_1703" data-name="Path 1703" d="M391.278,1112.151s-8.1-83.674,28.882-83.674,58.743,3.375,51.056-38.434c-4.566-24.836,12.982-24.549,48-21.672,4.318.355,11.469,6.066,10.452,10.277l-32.23,133.5Z" transform="translate(-245.203 -886.679)" fill="#aec3ff"/>
            <path id="Path_1704" data-name="Path 1704" d="M388.1,1112.807s-8-86.373,28.882-83.674c46.493,3.4,55.786,5.214,46.8-35.024-6.375-28.534,12.789-27.57,36.908-24.442,3.326.431,6.963,2.943,6.21,7.819l-12.639,135.32Z" transform="translate(-221.172 -887.336)" fill="#95b6ef"/>
          </g>
          <g id="Group_746" data-name="Group 746" transform="translate(784.381 484.424)">
            <g id="Group_741" data-name="Group 741" transform="translate(14.074 67.155)">
              <path id="Path_1734" data-name="Path 1734" d="M464.018,1401.585s11.768-13.729.726-22.449c0,0-8.066-4.883-14.642-4.486,0,0,9.319,15.626,6.3,17.18s-9.129-18.161-9.129-18.161-18.354-1.78-24.259,1.059c0,0,15.691,12.84,12.386,13.6s-20.253-11.838-20.253-11.838-17.083,2.906-16.172,13.327,6.8,13.639,9.384,13.362,17.721-6.054,18.05-3.934-8.78,9.047-15.159,9.371c0,0,12.044,13.282,20.048,9.449s8.688-9.91,13.677-12.189,9.249-2.273,7.189.051-11.09,4.583-13.944,9.63-5.414,8.451,2.868,7.2,21.742-7.305,22.333-14.245Z" transform="translate(-398.945 -1373.119)" fill="#688bd8"/>
              <g id="Group_740" data-name="Group 740" transform="translate(8.429 16.905)">
                <path id="Path_1735" data-name="Path 1735" d="M386.811,1415.282s46.4-1.788,56.644,11.481a33.562,33.562,0,0,0,9.239,12.967l1.087,2.962s-8.04-8.477-10.917-8.99C442.864,1433.7,447.364,1417.263,386.811,1415.282Z" transform="translate(-386.811 -1415.201)" fill="#688bd8"/>
                <path id="Path_1736" data-name="Path 1736" d="M365.621,1474.525s9.959,7.365,10.651,20.525l-1.808.161s-3.181-13.607-8.929-18.928S365.621,1474.525,365.621,1474.525Z" transform="translate(-299.738 -1449.996)" fill="#688bd8"/>
              </g>
            </g>
            <g id="Group_743" data-name="Group 743" transform="translate(104.585 41.657)">
              <path id="Path_1737" data-name="Path 1737" d="M182.352,1352.374s-16.5-9.241-8.8-21.783c0,0,6.16-7.7,12.761-9.68,0,0-3.52,18.7,0,19.142s2.42-21.122,2.42-21.122,17.381-8.361,24.2-7.7c0,0-10.781,18.262-7.261,17.821S221.3,1310.13,221.3,1310.13s17.822-3.3,20.682,7.261-1.76,15.841-4.4,16.5-19.582.44-19.142,2.64,11.881,5.72,18.262,3.741c0,0-7.041,17.381-16.282,16.5s-12.1-6.6-17.821-7.041-9.9,1.1-7.041,2.641,12.541.5,17.162,4.433,8.361,6.349-.22,8.108-23.982.66-27.062-5.941Z" transform="translate(-171.504 -1309.642)" fill="#709ce8"/>
              <g id="Group_742" data-name="Group 742" transform="translate(2.133 11.049)">
                <path id="Path_1738" data-name="Path 1738" d="M249.9,1337.148s-46.2,14.961-51.485,31.683a35.1,35.1,0,0,1-4.4,16.061v3.3s4.84-11.221,7.481-12.761C201.5,1375.432,191.157,1360.91,249.9,1337.148Z" transform="translate(-189.702 -1337.148)" fill="#709ce8"/>
                <path id="Path_1739" data-name="Path 1739" d="M331.958,1452.945s-7.125,10.821-3.063,23.993l1.833-.493s-1.78-14.508,1.948-21.8S331.958,1452.945,331.958,1452.945Z" transform="translate(-327.644 -1405.201)" fill="#709ce8"/>
              </g>
            </g>
            <g id="Group_745" data-name="Group 745" transform="translate(0)">
              <path id="Path_1740" data-name="Path 1740" d="M434.356,1269.84s24.676-13.818,13.16-32.572c0,0-9.212-11.515-19.083-14.476,0,0,5.264,27.966,0,28.623s-3.619-31.585-3.619-31.585-25.991-12.5-36.191-11.515c0,0,16.121,27.308,10.857,26.65s-23.36-28.295-23.36-28.295-26.649-4.935-30.926,10.857,2.632,23.689,6.58,24.676,29.282.658,28.624,3.948-17.766,8.554-27.307,5.593c0,0,10.528,25.991,24.347,24.676s18.1-9.87,26.649-10.528,14.805,1.645,10.529,3.948-18.753.755-25.662,6.628-12.5,9.493.329,12.125,35.862.987,40.468-8.884Z" transform="translate(-343.846 -1205.94)" fill="#b0d0ff"/>
              <g id="Group_744" data-name="Group 744" transform="translate(13.523 16.522)">
                <path id="Path_1741" data-name="Path 1741" d="M367.849,1247.072s69.091,22.372,76.988,47.377c0,0-.329,11.187,6.58,24.018v4.935s-7.238-16.779-11.186-19.082C440.231,1304.319,455.694,1282.6,367.849,1247.072Z" transform="translate(-367.849 -1247.072)" fill="#b0d0ff"/>
                <path id="Path_1742" data-name="Path 1742" d="M355.088,1420.228s10.655,16.18,4.581,35.876l-2.741-.736s2.661-21.694-2.913-32.6S355.088,1420.228,355.088,1420.228Z" transform="translate(-271.52 -1348.834)" fill="#b0d0ff"/>
              </g>
            </g>
            <path id="Path_1743" data-name="Path 1743" d="M322.251,1546a42.609,42.609,0,0,1-42.609-42.608H364.86A42.609,42.609,0,0,1,322.251,1546Z" transform="translate(-232.337 -1383.904)" fill="#f99746"/>
            <path id="Path_1744" data-name="Path 1744" d="M292.57,1545.671a42.639,42.639,0,0,0,47.9-42.283H329.885A42.616,42.616,0,0,1,292.57,1545.671Z" transform="translate(-213.141 -1383.904)" fill="#ffab6c"/>
            <rect id="Rectangle_155" data-name="Rectangle 155" width="87.588" height="1.307" transform="translate(46.336 119.484)" fill="#ed7d2b"/>
            <path id="Path_1745" data-name="Path 1745" d="M380.309,1604.371H340.415a3.417,3.417,0,0,1,3.416-3.417h33.061a3.417,3.417,0,0,1,3.417,3.417Z" transform="translate(-272.198 -1442.278)" fill="#ed7d2b"/>
          </g>
          <g id="Group_749" data-name="Group 749" transform="translate(69.065 544.946)">
            <path id="Path_1746" data-name="Path 1746" d="M2072.186,1366.733c1.931,0,3.495-2.268,3.495-5.065h0c0-2.8-1.564-5.064-3.495-5.064H1867.956c-1.93,0-3.495,2.267-3.495,5.064h0c0,2.8,1.565,5.065,3.495,5.065Z" transform="translate(-1864.461 -1356.604)" fill="#2a4e96"/>
            <g id="Group_747" data-name="Group 747" transform="translate(174.612 10.129)">
              <path id="Path_1747" data-name="Path 1747" d="M1927.33,1472.178h2.86l-10.23-90.358h-6.826Z" transform="translate(-1913.135 -1381.82)" fill="#2a4e96"/>
            </g>
            <g id="Group_748" data-name="Group 748" transform="translate(20.57 10.129)">
              <path id="Path_1748" data-name="Path 1748" d="M2299.472,1472.178h-2.86l10.229-90.358h6.826Z" transform="translate(-2296.612 -1381.82)" fill="#2a4e96"/>
            </g>
            <rect id="Rectangle_156" data-name="Rectangle 156" width="154.042" height="6.348" transform="translate(29.098 35.54)" fill="#2a4e96"/>
          </g>
          <path id="Rectangle_157" data-name="Rectangle 157" d="M2.34,0H949.189a2.34,2.34,0,0,1,2.34,2.34v.983a2.34,2.34,0,0,1-2.34,2.34H2.341A2.341,2.341,0,0,1,0,3.323V2.34A2.34,2.34,0,0,1,2.34,0Z" transform="translate(41.398 645.561)" fill="#2e3552"/>
        </g>
      </g>
    </g>
  </g>
</svg>
