<?xml version="1.0" encoding="UTF-8"?>
<svg id="Layer_2" data-name="Layer 2" xmlns="http://www.w3.org/2000/svg" viewBox="0 0 298.47 101.24">
  <defs>
    <style>
      .cls-1 {
        fill: #6f98cf;
      }

      .cls-1, .cls-2 {
        stroke-width: 0px;
      }

      .cls-2 {
        fill: #215396;
      }
    </style>
  </defs>
  <g id="Layer_1-2" data-name="Layer 1">
    <g>
      <path class="cls-1" d="M265.25,101.12c0,.07.06.12.12.12s.12-.06.12-.12c0-13.46,3.42-26.11,9.64-35.63,6.2-9.5,14.43-14.73,23.2-14.73.07,0,.12-.06.12-.12s-.06-.12-.12-.12c-8.76,0-17-5.23-23.2-14.73-6.22-9.52-9.64-22.18-9.64-35.64,0-.07-.06-.12-.12-.12s-.12.06-.12.12v100.99Z"/>
      <g>
        <path class="cls-2" d="M8.12,26.65v-4.13c0-1.61-.56-1.89-1.89-1.89-.91.07-2.24.07-2.73.07-1.19,0-2.38-.14-2.38-2.17l-.07-11.34c0-2.59,1.96-2.66,4.76-2.66,19.6,0,22.05,0,41.65.21,2.59,0,3.5.28,3.5,3.85,0,3.15.07,30.31-.07,33.32-.07,1.75.14,2.66-1.75,2.66h-14.7c-1.33,0-1.47-.98-1.47-1.19-.07-3.64-.21-4.62-.21-21.07,0-1.26-.21-1.68-1.68-1.68h-4.2c-1.47,0-1.82.42-1.82,1.61,0,10.08-.28,14.56,0,19.46.07,1.26-.7,2.87-3.29,2.87-15.54,0-18.76.14-20.37.14-1.26,0-1.4-1.12-1.4-2.45v-10.5c0-2.59,0-3.43,2.8-3.43h3.36c1.54,0,1.96.07,1.96-1.68Z"/>
        <path class="cls-2" d="M70.56,44.58l-12.6.07c-2.24,0-2.87-.28-2.87-2.52V7.19c0-1.4.14-2.59,2.87-2.59h12.18c2.45,0,2.1,1.68,2.1,3.57v34.44c0,.84-.84,1.96-1.68,1.96Z"/>
        <path class="cls-2" d="M76.23,18.18c0-2.59.07-7.14.07-10.99,0-1.89.77-2.66,1.96-2.66,40.81,0,7.63-.14,48.44.07,1.05,0,3.01.84,3.01,3.57,0,3.57.14,31.29.28,33.53.07,1.61-1.19,2.8-2.8,2.87-13.51.28-4.06.21-22.33,0-2.59,0-2.59-.91-2.59-3.29l-.07-9.59c0-2.59.77-3.5,2.87-3.5,1.89,0,3.43.14,5.81.14,1.61,0,1.82-.56,1.82-1.61v-3.78c0-1.19-1.33-1.89-1.82-1.89h-8.89c-.98,0-1.89.63-2.17,1.54-2.24,7.42-4.55,15.96-5.39,19.95-.21.84-1.19,1.96-2.03,1.96-4.34,0-8.68.07-13.02.07-1.75,0-2.66-1.33-2.17-3.92.7-3.85,3.01-12.04,4.76-18.41.28-.98-.07-1.33-.98-1.33h-2.1c-1.61,0-2.66-1.33-2.66-2.73Z"/>
        <path class="cls-2" d="M149.31,25.74h-12.39c-2.24,0-2.87-.28-2.87-2.52V7.89c0-1.75-.07-3.36,2.87-3.22,1.12.07,11.48-.07,12.18-.07,2.45,0,2.1,1.68,2.1,3.57v15.54c0,.84-1.05,2.03-1.89,2.03Z"/>
        <path class="cls-2" d="M186.06,4.46c8.4-.14,13.02.07,13.58.14,1.33.21,2.17.7,2.17,2.73v32.76c0,2.38-.63,4.48-4.76,4.48-23.66-.14-29.82-.07-42.14-.07-2.45,0-4.55-.63-4.41-3.29.14-3.22.14-7.56.14-10.78,0-1.19.63-2.45,2.24-2.45,1.4,0,2.8-.07,4.97-.07.98,0,1.54-.35,1.19-1.82-.7-2.94-2.94-12.67-3.99-18.13-.35-1.75-.35-3.43,2.59-3.43l11.97.07c2.03,0,2.73,1.05,3.08,2.87,1.54,7.7,3.43,16.1,4.2,19.39.21.77.7,1.26,1.47,1.26,1.82,0,3.36.07,4.27,0,1.26-.07,2.03-.35,2.03-1.61,0-1.82.14-13.16-.07-20.44,0-.91.63-1.61,1.47-1.61Z"/>
        <path class="cls-2" d="M205.59,41.78l.07-7.07c0-2.31.77-2.73,2.66-2.73h22.33c2.87,0,3.85-1.61,3.78-4.06-.07-1.54,0-3.64-.07-8.61,0-1.19-.77-1.68-1.4-1.68-2.24,0-1.4-.07-7.98-.07-1.19,0-1.54.42-1.54,1.26v.42c0,.63.42.98.91.98,2.03.14,3.78.14,5.6,0,1.4-.14,1.89.7,1.89,1.89v4.69c0,1.33-.14,2.24-2.1,2.45-4.69.42-12.74.63-20.23.07-2.59-.21-3.29-1.61-3.22-2.87.07-1.33-.21-14.28-.21-17.85s.91-3.85,3.5-3.85c7.98,0,30.17-.07,38.36,0,2.59,0,3.5.28,3.5,3.85,0,2.8.49,20.51.49,23.31,0,7.7-4.06,12.67-11.34,12.67l-32.55-.14c-1.96,0-2.45-.91-2.45-2.66Z"/>
        <path class="cls-2" d="M134.19,72.32c0-3.22.07-7.42.07-11.13,0-2.03,1.05-2.73,3.64-2.66,11.69.28,24.92.21,35.28,0,1.33,0,1.89,1.33,1.89,2.66,0,3.08.14,31.99.28,34.51.07,1.61-1.19,2.87-2.8,2.87-3.78.07-7.63.07-11.41.14-1.61,0-2.8-1.05-2.87-2.66-.14-1.47-.21-3.43-.21-20.09,0-1.19-.28-1.68-.77-1.68-3.85.14-12.81.35-20.72.14-1.61-.07-2.38-.77-2.38-2.1Z"/>
        <path class="cls-2" d="M194.88,98.58l-12.6.07c-2.24,0-2.87-.28-2.87-2.52v-34.93c0-1.4.14-2.59,2.87-2.59h12.18c2.45,0,2.1,1.68,2.1,3.57v34.44c0,.84-.84,1.96-1.68,1.96Z"/>
        <path class="cls-2" d="M216.23,98.58l-12.6.07c-2.24,0-2.87-.28-2.87-2.52v-34.23c0-1.68-.07-3.29,2.45-3.22,5.11.07,14.28-.07,19.39-.07,2.45,0,3.92,1.33,5.18,3.57l3.64,6.44c.28.56.21.84.91.84.49,0,.28-.14.56-.7,1.33-2.87,2.17-5.6,2.66-6.86.63-1.68,1.33-3.36,2.87-3.36l12.39.07c1.75,0,1.82,1.12,1.4,2.94-.49,2.31-5.39,15.54-8.47,24.01l6.51,10.36c1.26,1.89,1.4,2.66-.14,2.66l-14.91.07c-2.24,0-3.08.07-4.76-2.52-1.47-2.31-8.54-12.67-11.06-16.73-.21-.42-.42-.42-.77-.42-.56,0-.77.14-.77.56-.07,3.71.07,14.63.07,17.08,0,.84-.84,1.96-1.68,1.96Z"/>
      </g>
    </g>
  </g>
</svg>